<svg height="56" viewBox="0 0 56 56" width="56" xmlns="http://www.w3.org/2000/svg"><path d="m1.9022 46.7226h1.2991c1.1367 0 1.879-.7191 1.879-1.8558v-3.2942c.2552.0696.9976.116 1.5311.116h42.8004c.5336 0 1.2529-.0464 1.508-.116v3.2942c0 1.1367.7421 1.8558 1.879 1.8558h1.3222c1.1369 0 1.879-.7191 1.879-1.8558v-15.1252c0-3.9668-2.0182-6.1939-5.7529-6.4722v-7.609c0-4.106-2.1807-6.1939-6.1706-6.1939h-32.1527c-3.9669 0-6.1707 2.0879-6.1707 6.1939v7.609c-3.7349.2783-5.7531 2.5054-5.7531 6.4722v15.1252c0 1.1367.7423 1.8558 1.9022 1.8558zm9.6736-27.5825c0-2.0414 1.1367-3.1781 3.2245-3.1781h7.7714c2.0646 0 3.2245 1.1367 3.2245 3.1781v4.1061h-14.2204zm18.6513 0c0-2.0414 1.1367-3.1781 3.2245-3.1781h7.7481c2.0877 0 3.2479 1.1367 3.2479 3.1781v4.1061h-14.2205zm-25.5875 19.1616c-.464 0-.7655-.3248-.7655-.8583v-8.0497c0-1.6935 1.1135-2.7606 2.8301-2.7606h42.615c1.6932 0 2.8069 1.0671 2.8069 2.7606v8.0497c0 .5335-.3017.8583-.7426.8583z"/></svg>