<svg viewBox="0 0 1022 1054.968" xmlns="http://www.w3.org/2000/svg"><path d="M221.58 289.55h578.333v755.783H221.58zm531.88 46.453H268.03V998.88h485.43zm.465 307.98h268.03v401.35h-268.03zm221.58 46.453H800.377V998.88h175.126zM0 643.983h268.03v401.35H0zm221.58 46.453H46.452V998.88H221.58zM753.924 467h268.03v223.9h-268.03zm221.58 46.45H800.377v130.997h175.126zM0 467h268.03v223.9H0zm221.58 46.45H46.452v130.997H221.58zm223.9 508.657h-46.453V711.804h46.453zm177.45 0h-46.454V711.804h46.453zm221.577-686.104h-667.06V164.13l333.53-142.796 333.53 142.795zM223.9 289.55h574.155v-94.763L510.978 71.874 223.9 194.787zm20.905 578.334H111.95V821.43h132.855zm665.2 0H777.15V821.43h132.855zM445.48 534.354h-46.453v-88.723h46.453zm177.45 0h-46.454v-88.723h46.453z"/></svg>